<svg id="Layer_1" data-name="Layer 1" xmlns="http://www.w3.org/2000/svg" viewBox="0 0 1080 1080"><defs><style>.loader{fill:#000;}</style></defs><path class="loader" d="M708.64,439.64l290.48,67.53c12.92,3,13.67,21.12,1,25.17l-299.06,96a105.09,105.09,0,0,0-68.9,71.14L552.07,979.59c-3.61,12.6-21.45,12.64-25.12.06L445.16,699a105.05,105.05,0,0,0-68.55-70.58L79.46,532.33c-12.6-4.07-11.85-22.14,1-25.16l288.55-67.54a105.07,105.07,0,0,0,77.25-74.05L526.91,76.86c3.57-12.77,21.69-12.73,25.2.06l79,288.16A105.07,105.07,0,0,0,708.64,439.64Z"/></svg>